# xmcd
#
# Track frame offsets:
#	182
#	16552
#	32962
#
# Disc length: 698 seconds
#
# Revision: 1
# Processed by: cddbd v1.4PL0 Copyright (c) Steve Scherf et al.
# Submitted via: EasyCDDAExtractor 6.2.0.3
#
DISCID=1602b803
DTITLE=Björk - Bachelorette
DYEAR=1997
DGENRE=Electronic
TTITLE0=Bachelorette (Radio Edit)
TTITLE1=Bachelorette (Mark Bell "Zip" Remix)
TTITLE2=My Snare
EXTD=
EXTT0=
EXTT1=
EXTT2=
PLAYORDER=
